<svg width="211" height="19" viewBox="0 0 211 19" fill="none" xmlns="http://www.w3.org/2000/svg">
<path d="M5.125 14.75H10.725L10.15 18H0.275L3.375 0.449999H7.65L5.125 14.75ZM20.5391 18.175C19.0557 18.175 17.7474 17.8667 16.6141 17.25C15.4974 16.6333 14.6307 15.7667 14.0141 14.65C13.3974 13.5333 13.0891 12.25 13.0891 10.8C13.0891 8.75 13.5307 6.925 14.4141 5.325C15.2974 3.70833 16.5224 2.45 18.0891 1.55C19.6724 0.649999 21.4641 0.2 23.4641 0.2C24.9641 0.2 26.2807 0.508333 27.4141 1.125C28.5474 1.725 29.4224 2.58333 30.0391 3.7C30.6557 4.8 30.9641 6.06667 30.9641 7.5C30.9641 9.55 30.5224 11.3917 29.6391 13.025C28.7557 14.6417 27.5224 15.9083 25.9391 16.825C24.3557 17.725 22.5557 18.175 20.5391 18.175ZM21.1891 14.225C22.2891 14.225 23.2557 13.9417 24.0891 13.375C24.9224 12.8083 25.5641 12.05 26.0141 11.1C26.4807 10.1333 26.7141 9.09167 26.7141 7.975C26.7141 6.775 26.3807 5.83333 25.7141 5.15C25.0474 4.46667 24.1141 4.125 22.9141 4.125C21.8141 4.125 20.8391 4.40833 19.9891 4.975C19.1557 5.54167 18.5057 6.3 18.0391 7.25C17.5891 8.18333 17.3641 9.21667 17.3641 10.35C17.3641 11.55 17.6974 12.5 18.3641 13.2C19.0307 13.8833 19.9724 14.225 21.1891 14.225ZM38.1674 0.449999L40.1924 13.7L46.8674 0.449999H51.4174L42.0924 18H36.7424L33.6174 0.449999H38.1674ZM56.8791 3.825L56.2541 7.475H61.9791L61.4041 10.7H55.6791L54.9791 14.625H61.4541L60.8541 18H50.1041L53.2041 0.449999H63.9541L63.3541 3.825H56.8791ZM85.3156 5C85.1323 6.03333 84.7073 6.89167 84.0406 7.575C83.374 8.25833 82.574 8.73333 81.6406 9C82.474 9.18333 83.1323 9.59167 83.6156 10.225C84.099 10.8583 84.3406 11.6 84.3406 12.45C84.3406 12.7167 84.3156 12.975 84.2656 13.225C84.0156 14.6917 83.299 15.8583 82.1156 16.725C80.9323 17.575 79.424 18 77.5906 18H69.4156L72.5156 0.449999H80.4156C81.999 0.449999 83.224 0.774999 84.0906 1.425C84.9573 2.075 85.3906 2.975 85.3906 4.125C85.3906 4.40833 85.3656 4.7 85.3156 5ZM78.3156 7.575C79.0323 7.575 79.6073 7.41667 80.0406 7.1C80.474 6.78333 80.7406 6.325 80.8406 5.725C80.8573 5.625 80.8656 5.49167 80.8656 5.325C80.8656 4.84167 80.7073 4.475 80.3906 4.225C80.074 3.95833 79.6073 3.825 78.9906 3.825H76.1906L75.5406 7.575H78.3156ZM80.0156 12.65C80.049 12.45 80.0656 12.3 80.0656 12.2C80.0656 11.7167 79.8906 11.3417 79.5406 11.075C79.1906 10.7917 78.7073 10.65 78.0906 10.65H74.9906L74.2906 14.6H77.4406C78.174 14.6 78.7573 14.4333 79.1906 14.1C79.624 13.7667 79.899 13.2833 80.0156 12.65ZM93.2701 0.449999L90.1701 18H85.8951L88.9951 0.449999H93.2701ZM103.193 9.05L108.668 18H103.443L98.9182 10.25L97.5432 18H93.2682L96.3682 0.449999H100.643L99.2932 8.15L106.518 0.449999H111.518L103.193 9.05ZM117.475 3.825L116.85 7.475H122.575L122 10.7H116.275L115.575 14.625H122.05L121.45 18H110.7L113.8 0.449999H124.55L123.95 3.825H117.475ZM136.986 18.175C135.086 18.175 133.536 17.7667 132.336 16.95C131.153 16.1167 130.561 14.9417 130.561 13.425C130.561 13.275 130.578 13.05 130.611 12.75H135.061C135.011 13.3833 135.161 13.8833 135.511 14.25C135.861 14.6167 136.395 14.8 137.111 14.8C137.761 14.8 138.27 14.6583 138.636 14.375C139.02 14.0917 139.211 13.6917 139.211 13.175C139.211 12.6417 138.97 12.2083 138.486 11.875C138.02 11.5417 137.286 11.1667 136.286 10.75C135.32 10.35 134.528 9.975 133.911 9.625C133.311 9.25833 132.786 8.76667 132.336 8.15C131.886 7.53333 131.661 6.75833 131.661 5.825C131.645 4.675 131.928 3.675 132.511 2.825C133.095 1.975 133.903 1.325 134.936 0.874998C135.97 0.424999 137.153 0.2 138.486 0.2C139.686 0.2 140.753 0.391666 141.686 0.775C142.62 1.14167 143.345 1.68333 143.861 2.4C144.378 3.1 144.636 3.93333 144.636 4.9C144.636 5.15 144.628 5.33333 144.611 5.45H140.061C140.078 5.38333 140.086 5.28333 140.086 5.15C140.086 4.68333 139.92 4.30833 139.586 4.025C139.27 3.725 138.828 3.575 138.261 3.575C137.661 3.575 137.17 3.725 136.786 4.025C136.42 4.30833 136.236 4.7 136.236 5.2C136.236 5.7 136.47 6.125 136.936 6.475C137.403 6.80833 138.128 7.2 139.111 7.65C140.095 8.1 140.895 8.51667 141.511 8.9C142.145 9.28333 142.686 9.8 143.136 10.45C143.586 11.0833 143.811 11.8667 143.811 12.8C143.811 13.8333 143.536 14.7583 142.986 15.575C142.436 16.3917 141.645 17.0333 140.611 17.5C139.578 17.95 138.37 18.175 136.986 18.175ZM161.288 0.449999L160.713 3.825H156.038L153.538 18H149.263L151.763 3.825H147.113L147.713 0.449999H161.288ZM168.684 18.175C167.2 18.175 165.892 17.8667 164.759 17.25C163.642 16.6333 162.775 15.7667 162.159 14.65C161.542 13.5333 161.234 12.25 161.234 10.8C161.234 8.75 161.675 6.925 162.559 5.325C163.442 3.70833 164.667 2.45 166.234 1.55C167.817 0.649999 169.609 0.2 171.609 0.2C173.109 0.2 174.425 0.508333 175.559 1.125C176.692 1.725 177.567 2.58333 178.184 3.7C178.8 4.8 179.109 6.06667 179.109 7.5C179.109 9.55 178.667 11.3917 177.784 13.025C176.9 14.6417 175.667 15.9083 174.084 16.825C172.5 17.725 170.7 18.175 168.684 18.175ZM169.334 14.225C170.434 14.225 171.4 13.9417 172.234 13.375C173.067 12.8083 173.709 12.05 174.159 11.1C174.625 10.1333 174.859 9.09167 174.859 7.975C174.859 6.775 174.525 5.83333 173.859 5.15C173.192 4.46667 172.259 4.125 171.059 4.125C169.959 4.125 168.984 4.40833 168.134 4.975C167.3 5.54167 166.65 6.3 166.184 7.25C165.734 8.18333 165.509 9.21667 165.509 10.35C165.509 11.55 165.842 12.5 166.509 13.2C167.175 13.8833 168.117 14.225 169.334 14.225ZM190.262 0.449999C192.079 0.449999 193.462 0.866666 194.412 1.7C195.362 2.51667 195.837 3.58333 195.837 4.9C195.837 5.28333 195.804 5.64167 195.737 5.975C195.537 7.14167 195.029 8.18333 194.212 9.1C193.395 10.0167 192.304 10.6667 190.937 11.05L193.762 18H188.937L186.462 11.375H185.437L184.262 18H179.987L183.087 0.449999H190.262ZM191.362 6.15C191.395 5.88333 191.412 5.70833 191.412 5.625C191.412 5.09167 191.237 4.68333 190.887 4.4C190.554 4.1 190.054 3.95 189.387 3.95H186.737L185.962 8.35H188.612C189.395 8.35 190.012 8.15833 190.462 7.775C190.929 7.39167 191.229 6.85 191.362 6.15ZM203.071 3.825L202.446 7.475H208.171L207.596 10.7H201.871L201.171 14.625H207.646L207.046 18H196.296L199.396 0.449999H210.146L209.546 3.825H203.071Z" fill="#101010"/>
</svg>
