 <svg width="469" height="341" viewBox="0 0 469 341" fill="none" xmlns="http://www.w3.org/2000/svg">
                    <g id="svg" clip-path="url(#clip0_260_1463)">
                        <g id="ball">
                            <path id="Vector"
                                d="M273.192 60.1144C281.982 60.1144 289.107 52.991 289.107 44.2038C289.107 35.4166 281.982 28.2932 273.192 28.2932C264.402 28.2932 257.276 35.4166 257.276 44.2038C257.276 52.991 264.402 60.1144 273.192 60.1144Z"
                                fill="#F2F2F2" />
                        </g>
                        <path id="Vector_2"
                            d="M362.665 32.9644C362.146 32.6188 361.622 32.291 361.103 31.9573C346.112 22.373 330.045 14.5867 313.233 8.75951L309.334 62.5203H284.621V0.911704C283.065 0.589926 281.498 0.286025 279.93 0V62.5203H250.562C234.394 62.5203 218.889 56.0997 207.456 44.6711C196.024 33.2424 189.602 17.7418 189.602 1.57917C188.028 1.91882 186.466 2.28226 184.905 2.66958V62.5203H160.984L157.271 11.2563C139.993 17.8803 123.591 26.5913 108.429 37.1952C108.166 37.3739 107.904 37.5587 107.648 37.7374C106.331 38.661 105.031 39.6026 103.738 40.556V245.654H174.235L172.989 228.403L166.134 133.687H304.178L297.323 228.403L296.078 245.654H365.794V35.0381C364.757 34.3349 363.714 33.6437 362.665 32.9644ZM184.905 118.045H165.002L161.324 67.2159H184.905V118.045ZM279.93 118.045H246.502V117.038C246.503 116.554 246.407 116.074 246.222 115.627C246.036 115.18 245.764 114.774 245.421 114.432C245.079 114.09 244.672 113.819 244.224 113.634C243.777 113.449 243.297 113.354 242.813 113.355H228.281C227.797 113.355 227.318 113.45 226.871 113.635C226.424 113.82 226.018 114.091 225.675 114.433C225.333 114.775 225.062 115.181 224.877 115.628C224.692 116.075 224.597 116.554 224.597 117.038V118.045H189.602V67.2159H279.93V118.045ZM284.621 118.045V67.2159H308.995L305.317 118.045H284.621Z"
                            fill="#1a1a1a" />
                        <path id="Vector_3"
                            d="M0 258.787C5.17821 264.921 10.779 270.686 16.7615 276.038L452.238 276.634C458.221 271.281 463.822 265.517 469 259.383L0 258.787Z"
                            fill="#1a1a1a" />
                        <path id="Vector_4"
                            d="M295.311 203.549V254.619C295.312 255.27 295.57 255.894 296.031 256.354C296.491 256.814 297.115 257.073 297.766 257.074H373.47C374.121 257.073 374.745 256.814 375.205 256.354C375.666 255.894 375.925 255.27 375.925 254.619V203.549C375.924 202.899 375.664 202.276 375.204 201.816C374.744 201.357 374.12 201.098 373.47 201.098H297.766C297.116 201.098 296.492 201.357 296.032 201.816C295.572 202.276 295.313 202.899 295.311 203.549Z"
                            fill="#1a1a1a" />
                        <path class="telacomputador" id="Vector_5"
                            d="M297.087 204.185V253.989C297.088 254.337 297.226 254.67 297.472 254.916C297.718 255.162 298.051 255.3 298.399 255.301H372.84C373.188 255.3 373.521 255.162 373.767 254.916C374.013 254.67 374.151 254.337 374.152 253.989V204.185C374.152 203.836 374.014 203.503 373.768 203.256C373.522 203.01 373.188 202.871 372.84 202.87H298.399C298.051 202.871 297.717 203.01 297.471 203.256C297.225 203.503 297.087 203.836 297.087 204.185Z"
                            fill="#0d0d0d50" />
                        <path id="Vector_6"
                            d="M293.728 264.579C293.866 264.753 294.043 264.893 294.243 264.989C294.444 265.085 294.664 265.134 294.886 265.133H375.947C376.169 265.133 376.387 265.083 376.588 264.988C376.788 264.892 376.964 264.753 377.104 264.581C377.243 264.409 377.343 264.208 377.395 263.993C377.447 263.777 377.45 263.553 377.405 263.336L376.147 257.361C376.094 257.117 375.982 256.891 375.82 256.701C375.658 256.512 375.451 256.367 375.218 256.278C375.049 256.212 374.87 256.178 374.689 256.178H296.139C295.958 256.178 295.779 256.212 295.61 256.278C295.377 256.367 295.17 256.512 295.008 256.701C294.846 256.891 294.734 257.117 294.681 257.361L293.423 263.336C293.378 263.553 293.382 263.777 293.435 263.992C293.488 264.207 293.588 264.407 293.728 264.579Z"
                            fill="#1a1a1a" />
                        <path id="Vector_7"
                            d="M371.907 258.751H373.822C373.983 258.751 374.113 258.621 374.113 258.461V257.545C374.113 257.384 373.983 257.254 373.822 257.254H371.907C371.747 257.254 371.616 257.384 371.616 257.545V258.461C371.616 258.621 371.747 258.751 371.907 258.751Z"
                            fill="white" />
                        <path id="Vector_8"
                            d="M366.914 258.751H368.829C368.989 258.751 369.12 258.621 369.12 258.461V257.545C369.12 257.384 368.989 257.254 368.829 257.254H366.914C366.753 257.254 366.623 257.384 366.623 257.545V258.461C366.623 258.621 366.753 258.751 366.914 258.751Z"
                            fill="white" />
                        <path id="Vector_9"
                            d="M361.921 258.751H363.835C363.996 258.751 364.126 258.621 364.126 258.461V257.545C364.126 257.384 363.996 257.254 363.835 257.254H361.921C361.76 257.254 361.63 257.384 361.63 257.545V258.461C361.63 258.621 361.76 258.751 361.921 258.751Z"
                            fill="white" />
                        <path id="Vector_10"
                            d="M356.928 258.751H358.842C359.003 258.751 359.133 258.621 359.133 258.461V257.545C359.133 257.384 359.003 257.254 358.842 257.254H356.928C356.767 257.254 356.637 257.384 356.637 257.545V258.461C356.637 258.621 356.767 258.751 356.928 258.751Z"
                            fill="white" />
                        <path id="Vector_11"
                            d="M351.934 258.751H353.849C354.01 258.751 354.14 258.621 354.14 258.461V257.545C354.14 257.384 354.01 257.254 353.849 257.254H351.934C351.774 257.254 351.643 257.384 351.643 257.545V258.461C351.643 258.621 351.774 258.751 351.934 258.751Z"
                            fill="white" />
                        <path id="Vector_12"
                            d="M346.941 258.751H348.856C349.016 258.751 349.147 258.621 349.147 258.461V257.545C349.147 257.384 349.016 257.254 348.856 257.254H346.941C346.78 257.254 346.65 257.384 346.65 257.545V258.461C346.65 258.621 346.78 258.751 346.941 258.751Z"
                            fill="white" />
                        <path id="Vector_13"
                            d="M341.948 258.751H343.862C344.023 258.751 344.153 258.621 344.153 258.461V257.545C344.153 257.384 344.023 257.254 343.862 257.254H341.948C341.787 257.254 341.657 257.384 341.657 257.545V258.461C341.657 258.621 341.787 258.751 341.948 258.751Z"
                            fill="white" />
                        <path id="Vector_14"
                            d="M336.954 258.751H338.869C339.03 258.751 339.16 258.621 339.16 258.461V257.545C339.16 257.384 339.03 257.254 338.869 257.254H336.954C336.794 257.254 336.663 257.384 336.663 257.545V258.461C336.663 258.621 336.794 258.751 336.954 258.751Z"
                            fill="white" />
                        <path id="Vector_15"
                            d="M331.961 258.751H333.876C334.036 258.751 334.167 258.621 334.167 258.461V257.545C334.167 257.384 334.036 257.254 333.876 257.254H331.961C331.8 257.254 331.67 257.384 331.67 257.545V258.461C331.67 258.621 331.8 258.751 331.961 258.751Z"
                            fill="white" />
                        <path id="Vector_16"
                            d="M326.968 258.751H328.883C329.043 258.751 329.174 258.621 329.174 258.461V257.545C329.174 257.384 329.043 257.254 328.883 257.254H326.968C326.807 257.254 326.677 257.384 326.677 257.545V258.461C326.677 258.621 326.807 258.751 326.968 258.751Z"
                            fill="white" />
                        <path id="Vector_17"
                            d="M321.975 258.751H323.889C324.05 258.751 324.18 258.621 324.18 258.461V257.545C324.18 257.384 324.05 257.254 323.889 257.254H321.975C321.814 257.254 321.684 257.384 321.684 257.545V258.461C321.684 258.621 321.814 258.751 321.975 258.751Z"
                            fill="white" />
                        <path id="Vector_18"
                            d="M316.981 258.751H318.896C319.057 258.751 319.187 258.621 319.187 258.461V257.545C319.187 257.384 319.057 257.254 318.896 257.254H316.981C316.821 257.254 316.69 257.384 316.69 257.545V258.461C316.69 258.621 316.821 258.751 316.981 258.751Z"
                            fill="white" />
                        <path id="Vector_19"
                            d="M311.988 258.751H313.903C314.063 258.751 314.194 258.621 314.194 258.461V257.545C314.194 257.384 314.063 257.254 313.903 257.254H311.988C311.827 257.254 311.697 257.384 311.697 257.545V258.461C311.697 258.621 311.827 258.751 311.988 258.751Z"
                            fill="white" />
                        <path id="Vector_20"
                            d="M306.995 258.751H308.909C309.07 258.751 309.2 258.621 309.2 258.461V257.545C309.2 257.384 309.07 257.254 308.909 257.254H306.995C306.834 257.254 306.704 257.384 306.704 257.545V258.461C306.704 258.621 306.834 258.751 306.995 258.751Z"
                            fill="white" />
                        <path id="Vector_21"
                            d="M302.002 258.751H303.916C304.077 258.751 304.207 258.621 304.207 258.461V257.545C304.207 257.384 304.077 257.254 303.916 257.254H302.002C301.841 257.254 301.711 257.384 301.711 257.545V258.461C301.711 258.621 301.841 258.751 302.002 258.751Z"
                            fill="white" />
                        <path id="Vector_22"
                            d="M297.008 258.751H298.923C299.084 258.751 299.214 258.621 299.214 258.461V257.545C299.214 257.384 299.084 257.254 298.923 257.254H297.008C296.848 257.254 296.717 257.384 296.717 257.545V258.461C296.717 258.621 296.848 258.751 297.008 258.751Z"
                            fill="white" />
                        <path id="Vector_23"
                            d="M371.966 261.247H373.881C374.042 261.247 374.172 261.117 374.172 260.957V260.041C374.172 259.88 374.042 259.75 373.881 259.75H371.966C371.806 259.75 371.675 259.88 371.675 260.041V260.957C371.675 261.117 371.806 261.247 371.966 261.247Z"
                            fill="white" />
                        <path id="Vector_24"
                            d="M366.973 261.247H368.888C369.048 261.247 369.179 261.117 369.179 260.957V260.041C369.179 259.88 369.048 259.75 368.888 259.75H366.973C366.812 259.75 366.682 259.88 366.682 260.041V260.957C366.682 261.117 366.812 261.247 366.973 261.247Z"
                            fill="white" />
                        <path id="Vector_25"
                            d="M361.98 261.247H363.894C364.055 261.247 364.185 261.117 364.185 260.957V260.041C364.185 259.88 364.055 259.75 363.894 259.75H361.98C361.819 259.75 361.689 259.88 361.689 260.041V260.957C361.689 261.117 361.819 261.247 361.98 261.247Z"
                            fill="white" />
                        <path id="Vector_26"
                            d="M356.986 261.247H358.901C359.062 261.247 359.192 261.117 359.192 260.957V260.041C359.192 259.88 359.062 259.75 358.901 259.75H356.986C356.826 259.75 356.696 259.88 356.696 260.041V260.957C356.696 261.117 356.826 261.247 356.986 261.247Z"
                            fill="white" />
                        <path id="Vector_27"
                            d="M351.993 261.247H353.908C354.069 261.247 354.199 261.117 354.199 260.957V260.041C354.199 259.88 354.069 259.75 353.908 259.75H351.993C351.833 259.75 351.702 259.88 351.702 260.041V260.957C351.702 261.117 351.833 261.247 351.993 261.247Z"
                            fill="white" />
                        <path id="Vector_28"
                            d="M347 261.247H348.915C349.075 261.247 349.206 261.117 349.206 260.957V260.041C349.206 259.88 349.075 259.75 348.915 259.75H347C346.839 259.75 346.709 259.88 346.709 260.041V260.957C346.709 261.117 346.839 261.247 347 261.247Z"
                            fill="white" />
                        <path id="Vector_29"
                            d="M342.007 261.247H343.921C344.082 261.247 344.212 261.117 344.212 260.957V260.041C344.212 259.88 344.082 259.75 343.921 259.75H342.007C341.846 259.75 341.716 259.88 341.716 260.041V260.957C341.716 261.117 341.846 261.247 342.007 261.247Z"
                            fill="white" />
                        <path id="Vector_30"
                            d="M337.013 261.247H338.928C339.089 261.247 339.219 261.117 339.219 260.957V260.041C339.219 259.88 339.089 259.75 338.928 259.75H337.013C336.853 259.75 336.722 259.88 336.722 260.041V260.957C336.722 261.117 336.853 261.247 337.013 261.247Z"
                            fill="white" />
                        <path id="Vector_31"
                            d="M332.02 261.247H333.935C334.096 261.247 334.226 261.117 334.226 260.957V260.041C334.226 259.88 334.096 259.75 333.935 259.75H332.02C331.86 259.75 331.729 259.88 331.729 260.041V260.957C331.729 261.117 331.86 261.247 332.02 261.247Z"
                            fill="white" />
                        <path id="Vector_32"
                            d="M327.027 261.247H328.942C329.102 261.247 329.233 261.117 329.233 260.957V260.041C329.233 259.88 329.102 259.75 328.942 259.75H327.027C326.866 259.75 326.736 259.88 326.736 260.041V260.957C326.736 261.117 326.866 261.247 327.027 261.247Z"
                            fill="white" />
                        <path id="Vector_33"
                            d="M322.034 261.247H323.948C324.109 261.247 324.239 261.117 324.239 260.957V260.041C324.239 259.88 324.109 259.75 323.948 259.75H322.034C321.873 259.75 321.743 259.88 321.743 260.041V260.957C321.743 261.117 321.873 261.247 322.034 261.247Z"
                            fill="white" />
                        <path id="Vector_34"
                            d="M317.04 261.247H318.955C319.116 261.247 319.246 261.117 319.246 260.957V260.041C319.246 259.88 319.116 259.75 318.955 259.75H317.04C316.88 259.75 316.749 259.88 316.749 260.041V260.957C316.749 261.117 316.88 261.247 317.04 261.247Z"
                            fill="white" />
                        <path id="Vector_35"
                            d="M312.047 261.247H313.962C314.122 261.247 314.253 261.117 314.253 260.957V260.041C314.253 259.88 314.122 259.75 313.962 259.75H312.047C311.886 259.75 311.756 259.88 311.756 260.041V260.957C311.756 261.117 311.886 261.247 312.047 261.247Z"
                            fill="white" />
                        <path id="Vector_36"
                            d="M307.054 261.247H308.969C309.129 261.247 309.26 261.117 309.26 260.957V260.041C309.26 259.88 309.129 259.75 308.969 259.75H307.054C306.893 259.75 306.763 259.88 306.763 260.041V260.957C306.763 261.117 306.893 261.247 307.054 261.247Z"
                            fill="white" />
                        <path id="Vector_37"
                            d="M302.06 261.247H303.975C304.136 261.247 304.266 261.117 304.266 260.957V260.041C304.266 259.88 304.136 259.75 303.975 259.75H302.06C301.9 259.75 301.769 259.88 301.769 260.041V260.957C301.769 261.117 301.9 261.247 302.06 261.247Z"
                            fill="white" />
                        <path id="Vector_38"
                            d="M297.067 261.247H298.982C299.143 261.247 299.273 261.117 299.273 260.957V260.041C299.273 259.88 299.143 259.75 298.982 259.75H297.067C296.907 259.75 296.776 259.88 296.776 260.041V260.957C296.776 261.117 296.907 261.247 297.067 261.247Z"
                            fill="white" />
                        <path id="Vector_39"
                            d="M330.522 264.242H349.913C350.074 264.242 350.204 264.112 350.204 263.952V263.036C350.204 262.875 350.074 262.745 349.913 262.745H330.522C330.361 262.745 330.231 262.875 330.231 263.036V263.952C330.231 264.112 330.361 264.242 330.522 264.242Z"
                            fill="white" />
                        <path id="Vector_40"
                            d="M309.978 213.766H308.283C307.769 213.766 307.352 214.183 307.352 214.696C307.352 215.21 307.769 215.627 308.283 215.627H309.978C310.492 215.627 310.909 215.21 310.909 214.696C310.909 214.183 310.492 213.766 309.978 213.766Z"
                            fill="white" />
                        <path id="Vector_41"
                            d="M329.364 213.766H327.669C327.155 213.766 326.738 214.183 326.738 214.696C326.738 215.21 327.155 215.627 327.669 215.627H329.364C329.878 215.627 330.294 215.21 330.294 214.696C330.294 214.183 329.878 213.766 329.364 213.766Z"
                            fill="white" />
                        <path id="Vector_42"
                            d="M334.857 213.766H333.162C332.648 213.766 332.231 214.183 332.231 214.696C332.231 215.21 332.648 215.627 333.162 215.627H334.857C335.371 215.627 335.787 215.21 335.787 214.696C335.787 214.183 335.371 213.766 334.857 213.766Z"
                            fill="white" />
                        <path id="Vector_43"
                            d="M324.091 213.611H313.556C313.042 213.611 312.625 214.028 312.625 214.541C312.625 215.055 313.042 215.472 313.556 215.472H324.091C324.605 215.472 325.021 215.055 325.021 214.541C325.021 214.028 324.605 213.611 324.091 213.611Z"
                            fill="white" />
                        <path id="Vector_44"
                            d="M349.939 213.611H339.404C338.89 213.611 338.473 214.028 338.473 214.541C338.473 215.055 338.89 215.472 339.404 215.472H349.939C350.453 215.472 350.869 215.055 350.869 214.541C350.869 214.028 350.453 213.611 349.939 213.611Z"
                            fill="white" />
                        <path id="Vector_45"
                            d="M315.148 217.965H313.452C312.939 217.965 312.522 218.382 312.522 218.895C312.522 219.409 312.939 219.826 313.452 219.826H315.148C315.661 219.826 316.078 219.409 316.078 218.895C316.078 218.382 315.661 217.965 315.148 217.965Z"
                            fill="white" />
                        <path id="Vector_46"
                            d="M334.534 217.965H332.838C332.325 217.965 331.908 218.382 331.908 218.895C331.908 219.409 332.325 219.826 332.838 219.826H334.534C335.047 219.826 335.464 219.409 335.464 218.895C335.464 218.382 335.047 217.965 334.534 217.965Z"
                            fill="white" />
                        <path id="Vector_47"
                            d="M340.026 217.965H338.331C337.817 217.965 337.401 218.382 337.401 218.895C337.401 219.409 337.817 219.826 338.331 219.826H340.026C340.54 219.826 340.957 219.409 340.957 218.895C340.957 218.382 340.54 217.965 340.026 217.965Z"
                            fill="white" />
                        <path id="Vector_48"
                            d="M329.26 217.81H318.726C318.212 217.81 317.795 218.227 317.795 218.74C317.795 219.254 318.212 219.671 318.726 219.671H329.26C329.774 219.671 330.191 219.254 330.191 218.74C330.191 218.227 329.774 217.81 329.26 217.81Z"
                            fill="white" />
                        <path id="Vector_49"
                            d="M355.108 217.81H344.573C344.06 217.81 343.643 218.227 343.643 218.74C343.643 219.254 344.06 219.671 344.573 219.671H355.108C355.622 219.671 356.039 219.254 356.039 218.74C356.039 218.227 355.622 217.81 355.108 217.81Z"
                            fill="white" />
                        <path id="Vector_50"
                            d="M320.317 222.164H318.622C318.108 222.164 317.692 222.581 317.692 223.094C317.692 223.608 318.108 224.025 318.622 224.025H320.317C320.831 224.025 321.248 223.608 321.248 223.094C321.248 222.581 320.831 222.164 320.317 222.164Z"
                            fill="white" />
                        <path id="Vector_51"
                            d="M339.703 222.164H338.008C337.494 222.164 337.078 222.581 337.078 223.094C337.078 223.608 337.494 224.025 338.008 224.025H339.703C340.217 224.025 340.634 223.608 340.634 223.094C340.634 222.581 340.217 222.164 339.703 222.164Z"
                            fill="white" />
                        <path id="Vector_52"
                            d="M345.196 222.164H343.501C342.987 222.164 342.57 222.581 342.57 223.094C342.57 223.608 342.987 224.025 343.501 224.025H345.196C345.71 224.025 346.126 223.608 346.126 223.094C346.126 222.581 345.71 222.164 345.196 222.164Z"
                            fill="white" />
                        <path id="Vector_53"
                            d="M334.43 222.009H323.895C323.381 222.009 322.965 222.426 322.965 222.939C322.965 223.453 323.381 223.869 323.895 223.869H334.43C334.944 223.869 335.361 223.453 335.361 222.939C335.361 222.426 334.944 222.009 334.43 222.009Z"
                            fill="white" />
                        <path id="Vector_54"
                            d="M360.278 222.009H349.743C349.229 222.009 348.813 222.426 348.813 222.939C348.813 223.453 349.229 223.869 349.743 223.869H360.278C360.792 223.869 361.209 223.453 361.209 222.939C361.209 222.426 360.792 222.009 360.278 222.009Z"
                            fill="white" />
                        <path id="Vector_55"
                            d="M325.487 226.363H323.792C323.278 226.363 322.861 226.78 322.861 227.293C322.861 227.807 323.278 228.224 323.792 228.224H325.487C326.001 228.224 326.417 227.807 326.417 227.293C326.417 226.78 326.001 226.363 325.487 226.363Z"
                            fill="white" />
                        <path id="Vector_56"
                            d="M344.873 226.363H343.178C342.664 226.363 342.247 226.78 342.247 227.293C342.247 227.807 342.664 228.224 343.178 228.224H344.873C345.387 228.224 345.803 227.807 345.803 227.293C345.803 226.78 345.387 226.363 344.873 226.363Z"
                            fill="white" />
                        <path id="Vector_57"
                            d="M350.365 226.363H348.67C348.156 226.363 347.74 226.78 347.74 227.293C347.74 227.807 348.156 228.224 348.67 228.224H350.365C350.879 228.224 351.296 227.807 351.296 227.293C351.296 226.78 350.879 226.363 350.365 226.363Z"
                            fill="white" />
                        <path id="Vector_58"
                            d="M339.6 226.208H329.065C328.551 226.208 328.134 226.624 328.134 227.138C328.134 227.652 328.551 228.068 329.065 228.068H339.6C340.114 228.068 340.53 227.652 340.53 227.138C340.53 226.624 340.114 226.208 339.6 226.208Z"
                            fill="white" />
                        <path id="Vector_59"
                            d="M329.364 243.06H327.669C327.155 243.06 326.738 243.477 326.738 243.99C326.738 244.504 327.155 244.921 327.669 244.921H329.364C329.878 244.921 330.294 244.504 330.294 243.99C330.294 243.477 329.878 243.06 329.364 243.06Z"
                            fill="white" />
                        <path id="Vector_60"
                            d="M334.857 243.06H333.162C332.648 243.06 332.231 243.477 332.231 243.99C332.231 244.504 332.648 244.921 333.162 244.921H334.857C335.371 244.921 335.787 244.504 335.787 243.99C335.787 243.477 335.371 243.06 334.857 243.06Z"
                            fill="white" />
                        <path id="Vector_61"
                            d="M349.939 243.215H339.404C338.89 243.215 338.473 243.632 338.473 244.145C338.473 244.659 338.89 245.076 339.404 245.076H349.939C350.453 245.076 350.869 244.659 350.869 244.145C350.869 243.632 350.453 243.215 349.939 243.215Z"
                            fill="white" />
                        <path id="Vector_62"
                            d="M309.978 243.06H308.283C307.769 243.06 307.352 243.477 307.352 243.99C307.352 244.504 307.769 244.921 308.283 244.921H309.978C310.492 244.921 310.909 244.504 310.909 243.99C310.909 243.477 310.492 243.06 309.978 243.06Z"
                            fill="white" />
                        <path id="Vector_63"
                            d="M324.091 243.215H313.556C313.042 243.215 312.625 243.632 312.625 244.145C312.625 244.659 313.042 245.076 313.556 245.076H324.091C324.605 245.076 325.021 244.659 325.021 244.145C325.021 243.632 324.605 243.215 324.091 243.215Z"
                            fill="white" />
                        <path id="Vector_64"
                            d="M315.148 238.861H313.452C312.939 238.861 312.522 239.278 312.522 239.791C312.522 240.305 312.939 240.722 313.452 240.722H315.148C315.661 240.722 316.078 240.305 316.078 239.791C316.078 239.278 315.661 238.861 315.148 238.861Z"
                            fill="white" />
                        <path id="Vector_65"
                            d="M334.534 238.861H332.838C332.325 238.861 331.908 239.278 331.908 239.791C331.908 240.305 332.325 240.722 332.838 240.722H334.534C335.047 240.722 335.464 240.305 335.464 239.791C335.464 239.278 335.047 238.861 334.534 238.861Z"
                            fill="white" />
                        <path id="Vector_66"
                            d="M340.026 238.861H338.331C337.817 238.861 337.401 239.278 337.401 239.791C337.401 240.305 337.817 240.722 338.331 240.722H340.026C340.54 240.722 340.957 240.305 340.957 239.791C340.957 239.278 340.54 238.861 340.026 238.861Z"
                            fill="white" />
                        <path id="Vector_67"
                            d="M329.26 239.016H318.726C318.212 239.016 317.795 239.433 317.795 239.946C317.795 240.46 318.212 240.877 318.726 240.877H329.26C329.774 240.877 330.191 240.46 330.191 239.946C330.191 239.433 329.774 239.016 329.26 239.016Z"
                            fill="white" />
                        <path id="Vector_68"
                            d="M320.317 234.662H318.622C318.108 234.662 317.692 235.079 317.692 235.592C317.692 236.106 318.108 236.523 318.622 236.523H320.317C320.831 236.523 321.248 236.106 321.248 235.592C321.248 235.079 320.831 234.662 320.317 234.662Z"
                            fill="white" />
                        <path id="Vector_69"
                            d="M339.703 234.662H338.008C337.494 234.662 337.078 235.079 337.078 235.592C337.078 236.106 337.494 236.523 338.008 236.523H339.703C340.217 236.523 340.634 236.106 340.634 235.592C340.634 235.079 340.217 234.662 339.703 234.662Z"
                            fill="white" />
                        <path id="Vector_70"
                            d="M345.196 234.662H343.501C342.987 234.662 342.57 235.079 342.57 235.592C342.57 236.106 342.987 236.523 343.501 236.523H345.196C345.71 236.523 346.126 236.106 346.126 235.592C346.126 235.079 345.71 234.662 345.196 234.662Z"
                            fill="white" />
                        <path id="Vector_71"
                            d="M334.43 234.817H323.895C323.381 234.817 322.965 235.234 322.965 235.747C322.965 236.261 323.381 236.678 323.895 236.678H334.43C334.944 236.678 335.361 236.261 335.361 235.747C335.361 235.234 334.944 234.817 334.43 234.817Z"
                            fill="white" />
                        <path id="Vector_72"
                            d="M325.487 230.463H323.792C323.278 230.463 322.861 230.88 322.861 231.393C322.861 231.907 323.278 232.324 323.792 232.324H325.487C326.001 232.324 326.417 231.907 326.417 231.393C326.417 230.88 326.001 230.463 325.487 230.463Z"
                            fill="white" />
                        <path id="Vector_73"
                            d="M344.873 230.463H343.178C342.664 230.463 342.247 230.88 342.247 231.393C342.247 231.907 342.664 232.324 343.178 232.324H344.873C345.387 232.324 345.803 231.907 345.803 231.393C345.803 230.88 345.387 230.463 344.873 230.463Z"
                            fill="white" />
                        <path id="Vector_74"
                            d="M350.365 230.463H348.67C348.156 230.463 347.74 230.88 347.74 231.393C347.74 231.907 348.156 232.324 348.67 232.324H350.365C350.879 232.324 351.296 231.907 351.296 231.393C351.296 230.88 350.879 230.463 350.365 230.463Z"
                            fill="white" />
                        <path id="Vector_75"
                            d="M339.6 230.618H329.065C328.551 230.618 328.134 231.035 328.134 231.549C328.134 232.062 328.551 232.479 329.065 232.479H339.6C340.114 232.479 340.53 232.062 340.53 231.549C340.53 231.035 340.114 230.618 339.6 230.618Z"
                            fill="white" />
                        <g id="hand">
                            <path id="Vector_76"
                                d="M300.966 292.271L293.009 279.697L317.985 259.792L328.295 248.375C329.634 246.891 331.339 245.785 333.24 245.167C335.141 244.549 337.171 244.44 339.127 244.852C341.083 245.264 342.897 246.182 344.387 247.514C345.877 248.846 346.991 250.546 347.618 252.443C348.547 255.255 348.348 258.318 347.061 260.985C345.774 263.652 343.501 265.715 340.721 266.739L324.42 272.743L300.966 292.271Z"
                                fill="#FFB6B6" />
                        </g>
                        <path id="Vector_77"
                            d="M114.261 201.1V262.214H157.088V201.1C157.089 200.66 156.949 200.232 156.688 199.878C156.427 199.524 156.06 199.263 155.64 199.133C155.442 199.068 155.235 199.036 155.026 199.038H116.329C116.058 199.038 115.789 199.09 115.538 199.194C115.288 199.297 115.06 199.449 114.867 199.64C114.675 199.832 114.523 200.059 114.419 200.31C114.315 200.56 114.261 200.829 114.261 201.1ZM130.975 222.099C130.986 220.894 131.472 219.742 132.329 218.894C133.185 218.046 134.341 217.571 135.546 217.571C136.752 217.571 137.908 218.046 138.764 218.894C139.62 219.742 140.107 220.894 140.118 222.099V229.19C140.112 230.398 139.628 231.555 138.771 232.407C137.914 233.259 136.755 233.737 135.546 233.737C134.338 233.737 133.179 233.259 132.322 232.407C131.465 231.555 130.981 230.398 130.975 229.19V222.099Z"
                            fill="#1a1a1a" />
                        <path id="Vector_78"
                            d="M114.13 260.259V266.153C114.131 266.458 114.252 266.751 114.467 266.967C114.683 267.183 114.975 267.306 115.28 267.309H156.069C156.375 267.307 156.667 267.185 156.883 266.968C157.099 266.751 157.22 266.458 157.22 266.153V260.259H114.13Z"
                            fill="#1a1a1a" />
                        <path id="Vector_79"
                            d="M46.8868 109.024V220.609C46.888 222.031 47.4535 223.395 48.4593 224.4C49.4652 225.406 50.829 225.971 52.2515 225.972H217.661C219.083 225.971 220.447 225.406 221.453 224.4C222.459 223.395 223.024 222.031 223.026 220.609V109.024C223.022 107.603 222.456 106.241 221.45 105.237C220.445 104.233 219.082 103.669 217.661 103.667H52.2515C50.8303 103.669 49.4677 104.233 48.4622 105.237C47.4567 106.241 46.8902 107.603 46.8868 109.024Z"
                            fill="#3B3A3A" />
                        <path id="Vector_80"
                            d="M50.7673 110.412V219.233C50.7686 219.992 51.0711 220.721 51.6085 221.258C52.1459 221.795 52.8744 222.098 53.6344 222.099H216.284C217.044 222.098 217.773 221.795 218.31 221.258C218.847 220.721 219.15 219.992 219.151 219.233V110.412C219.151 109.651 218.849 108.922 218.312 108.383C217.774 107.845 217.045 107.542 216.284 107.54H53.6344C52.8735 107.542 52.1443 107.845 51.6068 108.383C51.0693 108.922 50.7674 109.651 50.7673 110.412Z"
                            fill="white" />
                        <path id="Vector_81"
                            d="M80.9523 266.909C81.1179 267.117 81.3283 267.284 81.5678 267.399C81.8074 267.513 82.0697 267.572 82.3352 267.571H179.101C179.366 267.571 179.627 267.511 179.866 267.397C180.105 267.283 180.315 267.118 180.482 266.912C180.649 266.707 180.767 266.467 180.83 266.21C180.892 265.952 180.896 265.685 180.842 265.426L179.34 258.293C179.277 258.002 179.143 257.731 178.95 257.506C178.756 257.28 178.509 257.106 178.231 257C178.03 256.921 177.815 256.881 177.599 256.881H83.8314C83.6152 256.881 83.4008 256.921 83.1995 257C82.9215 257.106 82.6744 257.28 82.4808 257.506C82.2871 257.731 82.1531 258.002 82.0908 258.293L80.5888 265.426C80.5353 265.685 80.5402 265.952 80.6031 266.209C80.666 266.465 80.7853 266.705 80.9523 266.909Z"
                            fill="#1a1a1a" />
                        <path id="Vector_82"
                            d="M211.006 122.53H58.8149C58.6568 122.527 58.5062 122.462 58.3956 122.349C58.285 122.236 58.223 122.084 58.223 121.925C58.223 121.767 58.285 121.615 58.3956 121.502C58.5062 121.389 58.6568 121.324 58.8149 121.32H211.006C211.164 121.324 211.314 121.389 211.425 121.502C211.536 121.615 211.598 121.767 211.598 121.925C211.598 122.084 211.536 122.236 211.425 122.349C211.314 122.462 211.164 122.527 211.006 122.53Z"
                            fill="#3F3D56" />
                        <g id="balls">
                            <path id="Vector_83"
                                d="M69.1748 118.231C71.1337 118.231 72.7217 116.608 72.7217 114.606C72.7217 112.604 71.1337 110.982 69.1748 110.982C67.2159 110.982 65.6279 112.604 65.6279 114.606C65.6279 116.608 67.2159 118.231 69.1748 118.231Z"
                                fill="#3F3D56" />
                            <path id="Vector_84"
                                d="M81.4276 118.231C83.3865 118.231 84.9745 116.608 84.9745 114.606C84.9745 112.604 83.3865 110.982 81.4276 110.982C79.4687 110.982 77.8807 112.604 77.8807 114.606C77.8807 116.608 79.4687 118.231 81.4276 118.231Z"
                                fill="#3F3D56" />
                            <path id="Vector_85"
                                d="M93.6804 118.231C95.6393 118.231 97.2273 116.608 97.2273 114.606C97.2273 112.604 95.6393 110.982 93.6804 110.982C91.7215 110.982 90.1335 112.604 90.1335 114.606C90.1335 116.608 91.7215 118.231 93.6804 118.231Z"
                                fill="#3F3D56" />
                        </g>
                        <path id="Vector_86"
                            d="M203.627 111.878H194.925C194.753 111.882 194.589 111.953 194.469 112.076C194.349 112.199 194.281 112.364 194.281 112.536C194.281 112.709 194.349 112.874 194.469 112.997C194.589 113.12 194.753 113.191 194.925 113.195H203.627C203.8 113.193 203.966 113.122 204.087 112.999C204.209 112.876 204.277 112.71 204.277 112.536C204.277 112.363 204.209 112.197 204.087 112.074C203.966 111.951 203.8 111.88 203.627 111.878Z"
                            fill="#3F3D56" />
                        <path id="Vector_87"
                            d="M203.627 114.351H194.925C194.753 114.355 194.589 114.426 194.468 114.549C194.348 114.672 194.281 114.837 194.281 115.009C194.281 115.182 194.348 115.347 194.468 115.47C194.589 115.593 194.753 115.664 194.925 115.668H203.627C203.801 115.666 203.966 115.595 204.088 115.472C204.21 115.349 204.278 115.183 204.278 115.009C204.278 114.836 204.21 114.67 204.088 114.547C203.966 114.423 203.801 114.353 203.627 114.351Z"
                            fill="#3F3D56" />
                        <path id="Vector_88"
                            d="M203.627 116.824H194.925C194.753 116.828 194.589 116.899 194.469 117.022C194.349 117.145 194.281 117.31 194.281 117.482C194.281 117.654 194.349 117.82 194.469 117.943C194.589 118.066 194.753 118.137 194.925 118.141H203.627C203.8 118.138 203.966 118.068 204.087 117.945C204.209 117.821 204.277 117.655 204.277 117.482C204.277 117.309 204.209 117.143 204.087 117.02C203.966 116.897 203.8 116.826 203.627 116.824Z"
                            fill="#3F3D56" />
                        <g id="coffe">
                            <path id="Vector_89"
                                d="M413.432 262.846C413.694 263.61 414.193 264.272 414.855 264.735C415.517 265.199 416.309 265.441 417.117 265.427L432.908 265.02C433.723 265.004 434.51 264.726 435.153 264.225C435.795 263.725 436.258 263.031 436.473 262.245L438.708 238.358C439.501 238.717 440.364 238.894 441.234 238.877C441.99 238.858 442.735 238.69 443.426 238.383C444.117 238.077 444.741 237.637 445.263 237.089C445.784 236.541 446.192 235.896 446.464 235.191C446.735 234.485 446.866 233.733 446.847 232.977C446.828 232.221 446.66 231.477 446.353 230.786C446.046 230.095 445.606 229.471 445.058 228.95C444.51 228.429 443.865 228.021 443.159 227.749C442.453 227.477 441.701 227.347 440.945 227.366C440.597 227.365 440.25 227.401 439.91 227.474C439.54 227.074 439.091 226.756 438.59 226.54C438.09 226.324 437.55 226.215 437.005 226.221L412.715 226.848C412.513 226.855 412.313 226.88 412.116 226.922C411.583 227.021 411.078 227.234 410.634 227.544C410.19 227.855 409.818 228.258 409.543 228.724C409.268 229.191 409.096 229.711 409.038 230.25C408.981 230.788 409.04 231.333 409.211 231.847L413.432 262.846ZM439.166 236.736L440.756 231.044C440.937 230.386 440.941 229.692 440.768 229.033C440.846 229.033 440.914 228.996 440.991 228.996C442.081 228.973 443.136 229.384 443.924 230.138C444.712 230.891 445.169 231.927 445.194 233.016C445.22 234.106 444.812 235.162 444.06 235.952C443.308 236.741 442.274 237.201 441.184 237.229C440.479 237.251 439.781 237.081 439.166 236.736Z"
                                fill="#1a1a1a" />
                            <path id="Vector_90"
                                d="M412.116 226.922C412.633 229.88 418.451 231.96 425.447 231.598C431.88 231.302 437.141 229.044 438.104 226.367C437.748 226.262 437.377 226.212 437.005 226.221L412.715 226.848C412.513 226.855 412.313 226.88 412.116 226.922Z"
                                fill="#3B3A3A20" />
                            <path id="Vector_91"
                                d="M426.729 249.719C426.761 249.711 426.792 249.698 426.819 249.68L430.249 247.436C430.29 247.409 430.324 247.372 430.348 247.329C430.371 247.285 430.384 247.236 430.384 247.187C430.384 247.137 430.371 247.089 430.348 247.045C430.324 247.002 430.29 246.965 430.249 246.938L426.684 244.604C426.652 244.582 426.615 244.567 426.577 244.56C426.538 244.552 426.498 244.553 426.46 244.56C426.422 244.568 426.385 244.584 426.353 244.606C426.32 244.628 426.292 244.656 426.271 244.689C426.249 244.722 426.235 244.758 426.227 244.797C426.22 244.835 426.22 244.875 426.229 244.913C426.237 244.952 426.252 244.988 426.274 245.021C426.297 245.053 426.325 245.081 426.358 245.102L429.541 247.186L426.493 249.181C426.434 249.22 426.391 249.278 426.371 249.346C426.35 249.413 426.355 249.486 426.383 249.55C426.412 249.615 426.462 249.667 426.525 249.698C426.589 249.729 426.661 249.737 426.729 249.719Z"
                                fill="white" />
                            <path id="Vector_92"
                                d="M421.313 249.969C421.37 249.955 421.422 249.923 421.462 249.879C421.502 249.835 421.527 249.78 421.535 249.721C421.543 249.662 421.533 249.602 421.507 249.549C421.481 249.496 421.44 249.451 421.388 249.422L418.227 247.61L421.282 245.342C421.314 245.318 421.34 245.289 421.36 245.255C421.38 245.222 421.394 245.185 421.399 245.146C421.405 245.107 421.403 245.068 421.394 245.03C421.384 244.992 421.367 244.956 421.344 244.925C421.32 244.894 421.291 244.867 421.258 244.847C421.224 244.827 421.187 244.814 421.148 244.808C421.109 244.802 421.07 244.804 421.032 244.814C420.994 244.823 420.958 244.84 420.927 244.864L417.506 247.404C417.467 247.433 417.435 247.472 417.414 247.517C417.393 247.562 417.384 247.611 417.387 247.66C417.389 247.71 417.405 247.757 417.431 247.8C417.457 247.842 417.493 247.876 417.536 247.901L421.091 249.939C421.159 249.977 421.238 249.988 421.313 249.969Z"
                                fill="white" />
                            <path id="Vector_93"
                                d="M426.388 251.686C426.417 251.679 426.445 251.667 426.47 251.651C426.503 251.631 426.532 251.604 426.556 251.573C426.579 251.541 426.595 251.505 426.605 251.467C426.614 251.429 426.616 251.39 426.61 251.351C426.604 251.313 426.59 251.275 426.57 251.242L421.708 243.252C421.667 243.185 421.601 243.137 421.524 243.118C421.447 243.099 421.366 243.112 421.299 243.153C421.231 243.194 421.183 243.26 421.164 243.337C421.146 243.414 421.158 243.495 421.199 243.562L426.06 251.552C426.094 251.607 426.143 251.649 426.202 251.673C426.261 251.697 426.326 251.702 426.388 251.686Z"
                                fill="white" />
                        </g>
                        <g id="body">
                            <path id="Vector_94"
                                d="M173.284 224.557L173.413 224.965L173.42 224.978L177.31 236.8L181.784 250.422L190.202 276.022L190.284 279.999V280.012L190.909 312.002L189.175 316.339L191.127 323.449C191.127 323.449 190.229 312.701 185.415 318.874C182.688 322.381 179.499 325.97 176.881 329.335C180.696 330.878 184.572 332.274 188.509 333.523C189.359 333.795 190.216 334.053 191.073 334.311C191.256 334.366 191.44 334.42 191.623 334.474C204.674 338.333 218.166 340.501 231.769 340.925C232.476 340.946 233.17 340.959 233.843 340.973C234.081 340.98 234.312 340.986 234.543 340.986C235.305 340.993 236.06 341 236.821 341C238.358 341 239.888 340.977 241.411 340.932C252.685 340.614 263.893 339.099 274.846 336.412C274.771 331.891 274.567 326.609 274.275 320.967C274.138 318.201 271.085 315.203 270.902 312.307C270.773 310.132 273.513 308.086 273.37 305.876C272.445 292.274 271.289 297.496 270.433 287.864C270.344 286.919 270.263 286.015 270.188 285.151C269.637 278.965 269.256 275.098 269.256 275.098L272.915 252.047L278.66 215.856L278.218 215.129L277.722 214.884L247.415 199.888L245.77 195.674C245.29 194.459 244.459 193.416 243.381 192.679C242.304 191.941 241.031 191.542 239.725 191.534L219.761 191.452C218.725 191.448 217.702 191.69 216.779 192.159C215.855 192.629 215.057 193.311 214.45 194.151L209.044 201.635L173.284 224.557Z"
                                fill="#1a1a1a" />
                            <path id="Vector_95"
                                d="M194.806 270.326L190.284 279.999L187.197 286.606L181.886 314.402L179.227 317.223L176.949 307.236L153.108 312.528C152.326 308.184 152.899 312.675 152.416 307.91C152.552 307.774 152.695 307.638 152.837 307.502C153.218 307.148 153.538 306.815 153.531 306.496C153.259 290.059 154.075 262.087 160.888 245.14C161.955 242.373 163.362 239.75 165.077 237.33C165.213 237.146 165.342 236.963 165.471 236.779C168.613 232.381 170.598 228.051 173.413 224.972V224.965C173.431 224.951 173.447 224.935 173.461 224.917C173.471 224.912 173.481 224.905 173.488 224.897L192.827 214.646L193.656 237.948L194.248 254.698L194.806 270.326Z"
                                fill="#1a1a1a" />
                            <path id="Vector_96"
                                d="M264.537 273.073L270.185 285.155L272.157 289.362L277.466 317.155L280.116 319.969L282.399 309.985L283.472 309.765L302.819 305.759L308.458 323.663C309.729 321.546 310.23 319.056 309.876 316.612C309.522 314.168 308.334 311.922 306.515 310.253C306.129 309.904 305.809 309.565 305.818 309.244C306.139 289.912 304.956 254.612 294.273 240.083C290.881 235.472 288.845 230.879 285.883 227.671C285.874 227.662 285.874 227.653 285.865 227.653L278.658 215.855L278.218 215.131L277.723 214.884L264.537 273.073Z"
                                fill="#1a1a1a" />
                        </g>
                        <g id="head">
                            <path id="Ellipse 5"
                                d="M230.32 185.772C244.988 185.772 256.879 173.885 256.879 159.221C256.879 144.557 244.988 132.669 230.32 132.669C215.651 132.669 203.76 144.557 203.76 159.221C203.76 173.885 215.651 185.772 230.32 185.772Z"
                                fill="#FFB6B6" />
                            <path id="Vector_97"
                                d="M266.218 140.675C266.012 140.455 265.764 140.279 265.489 140.157C265.213 140.035 264.916 139.97 264.615 139.966L265.014 138.857C265.145 138.508 265.18 138.131 265.116 137.764C265.053 137.396 264.892 137.053 264.652 136.768C264.412 136.483 264.1 136.267 263.749 136.142C263.398 136.017 263.02 135.987 262.654 136.057L261.199 136.337L261.336 135.365C261.389 135.004 261.346 134.634 261.213 134.294C261.08 133.954 260.86 133.654 260.575 133.424C260.291 133.195 259.952 133.043 259.591 132.984C259.23 132.925 258.86 132.962 258.517 133.089C258.205 133.212 257.87 133.263 257.536 133.239C257.202 133.216 256.877 133.118 256.586 132.952C256.293 132.792 256.039 132.569 255.842 132.301C255.644 132.032 255.507 131.724 255.441 131.397L254.935 128.954L254.881 128.823C252.413 124.711 247.669 121.72 241.863 120.623C236.695 119.64 231.396 120.141 226.288 120.611C224.261 120.802 221.972 121.016 220.065 122.184C218.443 123.185 217.072 125.188 217.352 127.208C212.316 125.664 206.915 128.745 204.239 132.63C201.068 137.254 200.549 143.046 200.466 147.575C200.239 158.289 202.451 167.055 207.023 173.633C207.356 174.11 207.44 175.105 208.101 175.439L207.964 175.218C208.703 175.588 209.454 176.184 209.174 176.821C208.37 178.656 213.716 182.714 217.484 184.055C224.356 186.504 233.494 186.296 239.92 185.414L240.146 183.894C242.465 183.578 244.098 182.977 244.557 182.035C245.368 181.344 246.059 180.724 246.661 180.152L246.667 180.146C246.679 180.134 246.703 180.116 246.715 180.104C249.618 177.322 250.291 175.737 250.595 173.323C250.887 170.958 250.369 168.556 249.838 166.393C261.009 168.121 245.439 154.499 255.847 151.865C255.966 151.829 256.087 151.799 256.21 151.776C256.514 151.705 256.818 151.633 257.11 151.55C258.518 151.168 259.866 150.592 261.116 149.839C264.025 148.07 264.984 145.722 266.486 143.076C266.703 142.699 266.794 142.263 266.746 141.832C266.698 141.4 266.513 140.994 266.218 140.675Z"
                                fill="#1a1a1a" />
                        </g>
                        <g id="cadeira">
                            <path id="Vector_98"
                                d="M324.258 274.963C324.252 276.006 324.24 277.466 324.192 279.272C324.186 279.522 324.18 279.778 324.174 280.04C324.097 283.359 324.019 286.142 323.894 289.235C323.888 289.449 323.882 289.658 323.87 289.872C323.703 294.187 323.441 299.21 322.988 307.165C322.147 321.86 320.681 309.185 319.209 314.34C319.137 314.596 319.06 314.9 318.988 315.257C318.765 316.554 318.389 317.821 317.868 319.029C317.087 319.494 316.282 319.941 315.489 320.388C313.23 321.645 310.935 322.855 308.623 324.005C307.323 324.648 306.018 325.28 304.707 325.888C304.498 325.983 304.295 326.078 304.093 326.168C297.377 329.273 290.457 331.913 283.379 334.069C281.996 334.486 280.619 334.892 279.225 335.267C277.77 335.672 276.316 336.054 274.843 336.411C263.891 339.099 252.683 340.615 241.41 340.934C239.89 340.982 238.358 340.999 236.82 340.999C236.057 340.999 235.306 340.993 234.543 340.988C234.311 340.988 234.078 340.982 233.846 340.976C233.172 340.958 232.475 340.946 231.771 340.928C218.168 340.504 204.676 338.335 191.626 334.475L191.072 334.314C190.213 334.051 189.361 333.795 188.509 333.521C184.574 332.276 180.698 330.881 176.879 329.338C173.964 328.164 171.083 326.905 168.236 325.56C168.21 325.553 168.186 325.541 168.165 325.524C167.569 325.25 166.967 324.964 166.371 324.672C166.293 324.63 166.21 324.589 166.126 324.547C163.903 323.463 161.703 322.326 159.528 321.139C157.698 316.938 155.123 316.133 153.525 312.439C153.06 311.341 152.724 310.193 152.524 309.018C152.524 309.006 152.518 308.994 152.518 308.977C152.685 311.193 151.809 305.044 152.512 308.953C152.506 308.881 152.5 308.804 152.494 308.714C152.476 308.5 152.452 308.238 152.417 307.91C150.372 287.954 150.503 265.131 149.615 246.325C149.555 245.11 149.494 243.946 149.43 242.833C149.412 242.464 149.388 242.1 149.365 241.743C149.406 241.636 149.454 241.522 149.508 241.415C149.519 241.384 149.533 241.354 149.549 241.326C149.567 241.289 149.587 241.253 149.609 241.218C149.621 241.201 149.639 241.177 149.651 241.159C149.659 241.138 149.669 241.118 149.681 241.099C149.734 241.016 149.794 240.926 149.859 240.843C149.889 240.807 149.913 240.777 149.943 240.748C149.963 240.717 149.987 240.689 150.014 240.664C150.033 240.636 150.055 240.61 150.08 240.587C150.104 240.563 150.128 240.533 150.157 240.503C150.17 240.485 150.186 240.468 150.205 240.456C150.252 240.402 150.304 240.352 150.36 240.307C150.573 240.111 150.8 239.932 151.04 239.77C151.123 239.717 151.212 239.663 151.296 239.604C151.897 239.244 152.529 238.941 153.185 238.698C153.412 238.614 153.638 238.537 153.883 238.454C153.972 238.43 154.056 238.4 154.145 238.37C154.276 238.328 154.407 238.287 154.544 238.257C155.224 238.054 155.957 237.881 156.75 237.721C156.845 237.703 156.947 237.685 157.048 237.661C157.191 237.631 157.34 237.607 157.489 237.584C157.692 237.548 157.9 237.512 158.109 237.476C159.879 237.196 161.888 236.988 164.105 236.851C164.314 236.839 164.523 236.827 164.731 236.815C164.976 236.803 165.22 236.791 165.47 236.779C165.679 236.767 165.894 236.761 166.108 236.755C166.317 236.743 166.531 236.737 166.752 236.731C167.354 236.714 167.974 236.696 168.606 236.684C170.406 236.648 172.301 236.66 174.292 236.702C175.216 236.725 176.158 236.749 177.124 236.791C177.189 236.791 177.249 236.797 177.308 236.797C178.149 236.827 178.995 236.863 179.866 236.91C180.474 236.94 181.087 236.97 181.701 237.006C182.28 237.041 182.864 237.077 183.454 237.119C183.913 237.143 184.372 237.178 184.837 237.208C185.23 237.238 185.624 237.268 186.017 237.292L186.553 237.327C186.845 237.351 187.138 237.369 187.436 237.399C188.091 237.452 188.747 237.506 189.415 237.56C190.076 237.619 190.75 237.679 191.423 237.738C192.097 237.798 192.776 237.864 193.456 237.929C193.527 237.935 193.593 237.941 193.659 237.947C194.278 238.013 194.898 238.072 195.524 238.138C195.667 238.15 195.816 238.162 195.959 238.179C196.556 238.239 197.164 238.31 197.767 238.374C197.952 238.393 198.135 238.413 198.321 238.433C198.792 238.484 199.257 238.529 199.732 238.585C200.358 238.656 200.996 238.722 201.616 238.805C202.099 238.859 202.582 238.912 203.065 238.972C203.822 239.061 204.59 239.157 205.359 239.258C205.651 239.294 205.944 239.329 206.236 239.371C208.429 239.645 210.647 239.949 212.9 240.265C216.315 240.748 219.784 241.272 223.277 241.838C226.776 242.404 230.295 243.002 233.834 243.632C234.728 243.793 235.622 243.954 236.522 244.12C236.927 244.198 237.333 244.275 237.738 244.353C238.429 244.478 239.121 244.609 239.812 244.74C240.504 244.871 241.195 245.002 241.887 245.139C242.709 245.3 243.538 245.461 244.36 245.622C249.779 246.695 255.167 247.839 260.424 249.036C261.289 249.233 262.153 249.436 263.011 249.632C264.728 250.032 266.429 250.437 268.114 250.848C268.579 250.955 269.038 251.068 269.497 251.182C270.641 251.468 271.785 251.754 272.912 252.046L273.109 252.099C273.937 252.302 274.748 252.51 275.559 252.725C277.472 253.226 279.354 253.732 281.203 254.244C282.431 254.584 283.645 254.928 284.845 255.275C286.64 255.794 288.398 256.318 290.109 256.849C290.532 256.98 290.955 257.111 291.372 257.236C292.624 257.623 293.858 258.016 295.056 258.41C296.01 258.72 296.94 259.035 297.858 259.351C298.776 259.667 299.676 259.983 300.558 260.299C301.124 260.501 301.684 260.716 302.245 260.918C303.049 261.216 303.842 261.514 304.617 261.812C304.855 261.902 305.088 261.997 305.32 262.086C305.469 262.152 305.612 262.205 305.755 262.265C306.036 262.378 306.322 262.486 306.596 262.599C306.876 262.706 307.15 262.819 307.424 262.938C307.693 263.046 307.967 263.159 308.229 263.272C308.497 263.379 308.76 263.493 309.022 263.612C309.243 263.701 309.457 263.797 309.666 263.892C310.089 264.077 310.512 264.261 310.923 264.452C311.126 264.547 311.329 264.637 311.531 264.732L311.996 264.947C312.062 264.982 312.127 265.012 312.193 265.042C312.342 265.113 312.497 265.191 312.646 265.262C312.992 265.423 313.332 265.596 313.665 265.757C314.112 265.983 314.548 266.21 314.965 266.43C315.388 266.657 315.799 266.883 316.193 267.104C316.258 267.139 316.318 267.175 316.383 267.211C316.473 267.259 316.562 267.312 316.652 267.36C316.956 267.533 317.248 267.712 317.54 267.884C318.112 268.236 318.654 268.581 319.161 268.927C319.274 269.005 319.382 269.082 319.495 269.153C319.87 269.422 320.228 269.684 320.562 269.952C320.562 269.958 320.562 269.958 320.568 269.958C320.681 270.041 320.788 270.131 320.896 270.214C320.985 270.298 321.08 270.369 321.17 270.453C321.48 270.721 321.766 270.977 322.028 271.239C322.116 271.32 322.2 271.406 322.279 271.495C322.313 271.524 322.345 271.556 322.374 271.591C322.493 271.71 322.6 271.829 322.702 271.948C322.717 271.965 322.731 271.983 322.743 272.002C322.887 272.169 323.018 272.336 323.143 272.502C323.202 272.586 323.268 272.669 323.322 272.753C323.393 272.854 323.465 272.961 323.524 273.063C323.578 273.146 323.626 273.235 323.673 273.319C323.8 273.534 323.908 273.759 323.995 273.992C324.062 274.15 324.116 274.314 324.156 274.481C324.201 274.639 324.235 274.8 324.258 274.963Z"
                                fill="#1a1a1a" />
                            <path id="Vector_99" opacity="0.2"
                                d="M324.258 274.963C324.252 276.006 324.24 277.466 324.192 279.272C324.186 279.522 324.174 279.778 324.168 280.04C324.109 282.573 324.019 285.701 323.894 289.235C323.888 289.449 323.882 289.658 323.87 289.873C323.703 294.187 323.441 299.21 322.988 307.165C322.148 321.86 320.681 309.185 319.209 314.34C315.12 311.825 310.637 309.191 305.845 306.486C304.981 305.997 304.108 305.507 303.228 305.014C293.643 299.669 282.938 294.068 271.762 288.52C271.321 288.299 270.874 288.079 270.432 287.864C244.831 275.214 216.887 262.909 194.249 254.697C189.88 253.112 185.707 251.682 181.785 250.425C173.523 247.785 166.382 245.938 160.887 245.139C155.164 244.305 151.212 244.603 149.615 246.325C149.555 245.11 149.494 243.946 149.43 242.833C149.406 242.464 149.382 242.1 149.359 241.743C149.395 241.645 149.443 241.551 149.49 241.457C149.496 241.443 149.501 241.429 149.508 241.415C149.519 241.384 149.533 241.354 149.549 241.326C149.567 241.289 149.587 241.253 149.609 241.218C149.628 241.176 149.652 241.136 149.681 241.099C149.734 241.016 149.794 240.926 149.859 240.843C149.908 240.781 149.959 240.721 150.014 240.664C150.033 240.636 150.055 240.61 150.08 240.587C150.104 240.563 150.128 240.533 150.157 240.503C150.17 240.485 150.186 240.468 150.205 240.456C150.252 240.402 150.304 240.352 150.36 240.307C150.573 240.111 150.8 239.932 151.04 239.77C151.123 239.717 151.212 239.663 151.296 239.604C151.897 239.244 152.529 238.941 153.185 238.698C153.412 238.614 153.638 238.537 153.883 238.454C153.972 238.43 154.056 238.4 154.145 238.37C154.276 238.328 154.407 238.287 154.544 238.257C155.224 238.054 155.957 237.882 156.75 237.721C156.988 237.673 157.239 237.625 157.489 237.584C157.692 237.548 157.9 237.512 158.109 237.476C159.879 237.196 161.888 236.988 164.105 236.851C164.314 236.839 164.523 236.827 164.731 236.815C164.976 236.803 165.22 236.791 165.47 236.779C165.679 236.767 165.894 236.761 166.108 236.755C166.317 236.743 166.531 236.737 166.752 236.731C167.354 236.714 167.974 236.696 168.606 236.684C170.406 236.654 172.301 236.666 174.292 236.708C175.216 236.725 176.158 236.755 177.124 236.797C177.183 236.797 177.249 236.803 177.308 236.803C178.149 236.827 179.001 236.869 179.866 236.91C180.474 236.94 181.087 236.97 181.701 237.006C182.28 237.041 182.864 237.077 183.454 237.119C183.913 237.143 184.372 237.178 184.837 237.208C185.23 237.238 185.624 237.268 186.017 237.292C186.488 237.327 186.959 237.363 187.436 237.399C188.091 237.452 188.747 237.506 189.415 237.56C190.076 237.619 190.75 237.679 191.423 237.738C192.097 237.798 192.776 237.864 193.456 237.929C193.527 237.935 193.593 237.941 193.659 237.947C194.278 238.013 194.898 238.072 195.524 238.138C198.993 238.489 202.564 238.9 206.236 239.371C208.429 239.651 210.651 239.951 212.9 240.271C216.315 240.754 219.784 241.278 223.277 241.838C226.776 242.404 230.295 243.002 233.834 243.632C234.728 243.793 235.622 243.954 236.522 244.12C237.619 244.323 238.716 244.53 239.812 244.74C240.504 244.871 241.195 245.002 241.887 245.139C242.709 245.3 243.538 245.461 244.36 245.622C249.779 246.695 255.167 247.839 260.424 249.036C261.289 249.233 262.153 249.436 263.011 249.632C264.728 250.032 266.429 250.437 268.114 250.848C268.579 250.961 269.038 251.074 269.497 251.188C270.647 251.474 271.785 251.76 272.912 252.046V252.052C272.978 252.064 273.043 252.081 273.109 252.099C273.931 252.308 274.748 252.516 275.559 252.731C277.472 253.232 279.354 253.736 281.203 254.245C282.431 254.59 283.647 254.93 284.845 255.275C286.64 255.8 288.398 256.324 290.109 256.849C290.532 256.98 290.955 257.111 291.372 257.236C292.624 257.629 293.852 258.02 295.056 258.41C296.01 258.72 296.94 259.035 297.858 259.351C298.776 259.667 299.676 259.983 300.558 260.299C301.13 260.501 301.69 260.71 302.245 260.912C303.055 261.21 303.842 261.508 304.617 261.812C304.855 261.902 305.088 261.997 305.32 262.086C305.756 262.253 306.179 262.426 306.596 262.599C306.876 262.706 307.15 262.819 307.425 262.938C307.693 263.046 307.967 263.159 308.229 263.272C308.497 263.379 308.76 263.493 309.022 263.612C309.243 263.701 309.457 263.797 309.666 263.892C310.089 264.077 310.512 264.261 310.923 264.452C311.126 264.547 311.329 264.637 311.531 264.732L311.996 264.947C312.062 264.982 312.128 265.012 312.193 265.042C312.7 265.28 313.189 265.519 313.665 265.757C314.112 265.983 314.548 266.21 314.965 266.43C315.46 266.693 315.93 266.949 316.383 267.211C316.473 267.259 316.562 267.312 316.652 267.36C316.956 267.533 317.248 267.712 317.54 267.884C318.112 268.236 318.655 268.581 319.161 268.927C319.662 269.273 320.127 269.612 320.562 269.952C320.562 269.958 320.562 269.958 320.568 269.958C320.777 270.125 320.979 270.292 321.17 270.453C321.48 270.721 321.766 270.977 322.028 271.239C322.116 271.32 322.2 271.406 322.279 271.495C322.313 271.524 322.345 271.556 322.374 271.591C322.499 271.728 322.624 271.865 322.744 272.002C322.887 272.169 323.018 272.336 323.143 272.502C323.203 272.586 323.268 272.669 323.322 272.753C323.393 272.854 323.465 272.961 323.524 273.063C323.578 273.146 323.626 273.235 323.673 273.319C323.8 273.534 323.908 273.759 323.995 273.992C324.061 274.151 324.114 274.314 324.156 274.481C324.201 274.639 324.235 274.8 324.258 274.963Z"
                                fill="black" />
                        </g>
                        <g id="adrielname">
                            <path id="Vector 4"
                                d="M157.022 161.846C156.777 161.6 155.843 161.256 154.074 161.846C153.064 162.351 153.423 162.892 153.855 163.191C153.928 163.241 154.003 163.285 154.074 163.32L154.811 164.057H155.548L156.285 163.32L157.022 162.583V161.846Z"
                                stroke="black" />
                            <path id="Vector 1"
                                d="M139.331 155.949L126.799 176.589M126.799 176.589C126.062 177.817 124.145 180.422 122.376 181.012C120.165 181.749 118.69 181.012 118.69 180.275C118.69 179.685 118.69 178.063 118.69 177.326L122.376 170.692L123.851 169.217L125.325 168.48L127.536 167.743H129.011L131.959 168.48M126.799 176.589L127.536 180.275C127.782 180.766 128.568 181.602 129.748 181.012C130.927 180.422 134.171 175.852 135.645 173.64L140.068 167.006C138.839 168.48 136.972 171.429 139.331 171.429C141.69 171.429 143.754 170.937 144.491 170.692C143.999 170.692 142.869 171.134 142.279 172.903L139.331 178.063C138.839 179.046 138.004 181.012 138.594 181.012"
                                stroke="black" />
                            <path id="Vector 2"
                                d="M138.594 181.012C139.331 181.503 141.1 182.191 142.279 181.012C143.459 179.832 145.719 177.08 146.702 175.852L151.125 169.217L146.702 178.8L147.439 180.275L148.914 181.012H151.125L154.074 178.063L159.971 169.955C160.463 169.463 161.74 168.333 162.92 167.743C164.099 167.153 164.885 167.497 165.131 167.743L165.868 168.48V169.955C165.868 170.692 165.721 172.166 165.131 172.166"
                                stroke="black" />
                            <path id="Vector 3"
                                d="M165.131 172.166C163.903 173.395 161.298 175.852 160.708 175.852C160.118 175.852 158.005 175.852 157.022 175.852H156.285L157.022 179.538L158.497 181.012L159.971 181.749L162.183 181.012L165.868 178.8L168.08 175.852L170.291 171.429L178.4 164.794L180.611 162.583L183.56 157.423C183.56 156.931 183.413 155.949 182.823 155.949C182.233 155.949 181.103 155.949 180.611 155.949L179.137 156.686L176.188 160.372L174.714 162.583C173.977 163.812 172.355 166.416 171.765 167.006C171.176 167.596 170.537 169.217 170.291 169.955L168.817 178.063L169.554 180.275L170.291 181.012H171.028L172.503 180.275L175.451 178.063L178.4 174.377L179.137 172.903"
                                stroke="black" />
                            <path id="A"
                                d="M97.3129 167.743L98.0501 166.269V164.057L97.3129 161.846L95.1015 161.109H92.1529L88.4671 161.846L84.7813 164.057L83.307 165.532L80.3584 169.955L79.6213 172.166C78.8841 173.886 77.5572 177.621 78.147 178.8C78.8841 180.275 78.8842 183.96 81.8328 184.698C82.8157 185.189 85.0763 186.024 86.2557 185.435C87.73 184.698 87.73 185.435 91.4158 183.223C94.3644 181.454 96.5759 179.538 97.313 178.8L102.473 172.903M102.473 172.903L95.1016 173.64M102.473 172.903H112.793M102.473 172.903L112.793 161.109L117.953 155.211L120.165 153.737L122.376 153H123.113L118.69 158.897L112.793 171.429V172.903M115.742 172.903H112.793M112.793 172.903L112.056 176.589V179.538V181.012C112.302 182.24 113.088 184.55 114.268 183.96C115.447 183.371 115.742 183.223 115.742 183.223L116.479 182.486L117.216 181.749"
                                stroke="black" />
                        </g>
                    </g>
                    <defs>
                        <clipPath id="clip0_260_1463">
                            <rect width="469" height="341" fill="white" />
                        </clipPath>
                    </defs>
                </svg>